<svg width="20" height="20" viewBox="0 0 20 20" fill="none" xmlns="http://www.w3.org/2000/svg">
<path d="M8.42499 9.29175H6.21666C5.69166 9.29175 5.26667 9.71671 5.26667 10.2417V14.5084H8.42499V9.29175V9.29175Z" stroke="white" stroke-miterlimit="10" stroke-linecap="round" stroke-linejoin="round"/>
<path d="M10.6344 5.5H9.3677C8.8427 5.5 8.41772 5.92501 8.41772 6.45001V14.5H11.5761V6.45001C11.5761 5.92501 11.1594 5.5 10.6344 5.5Z" stroke="white" stroke-miterlimit="10" stroke-linecap="round" stroke-linejoin="round"/>
<path d="M13.7901 10.7084H11.5818V14.5001H14.7401V11.6584C14.7318 11.1334 14.3068 10.7084 13.7901 10.7084Z" stroke="white" stroke-miterlimit="10" stroke-linecap="round" stroke-linejoin="round"/>
<path d="M7.5 18.3333H12.5C16.6667 18.3333 18.3333 16.6666 18.3333 12.5V7.49996C18.3333 3.33329 16.6667 1.66663 12.5 1.66663H7.5C3.33333 1.66663 1.66667 3.33329 1.66667 7.49996V12.5C1.66667 16.6666 3.33333 18.3333 7.5 18.3333Z" stroke="white" stroke-linecap="round" stroke-linejoin="round"/>
</svg>
