<svg width="20" height="20" viewBox="0 0 20 20" fill="none" xmlns="http://www.w3.org/2000/svg">
<path d="M8.42498 9.29175H6.21665C5.69165 9.29175 5.26666 9.71671 5.26666 10.2417V14.5084H8.42498V9.29175V9.29175Z" stroke="#8FA2B7" stroke-miterlimit="10" stroke-linecap="round" stroke-linejoin="round"/>
<path d="M10.6344 5.5H9.36771C8.84271 5.5 8.41772 5.92501 8.41772 6.45001V14.5H11.5761V6.45001C11.5761 5.92501 11.1594 5.5 10.6344 5.5Z" stroke="#8FA2B7" stroke-miterlimit="10" stroke-linecap="round" stroke-linejoin="round"/>
<path d="M13.7901 10.7084H11.5818V14.5001H14.7401V11.6584C14.7318 11.1334 14.3068 10.7084 13.7901 10.7084Z" stroke="#8FA2B7" stroke-miterlimit="10" stroke-linecap="round" stroke-linejoin="round"/>
<path d="M7.50002 18.3333H12.5C16.6667 18.3333 18.3334 16.6666 18.3334 12.5V7.49996C18.3334 3.33329 16.6667 1.66663 12.5 1.66663H7.50002C3.33335 1.66663 1.66669 3.33329 1.66669 7.49996V12.5C1.66669 16.6666 3.33335 18.3333 7.50002 18.3333Z" stroke="#8FA2B7" stroke-linecap="round" stroke-linejoin="round"/>
</svg>
