<svg width="278" height="50" viewBox="0 0 278 50" fill="none" xmlns="http://www.w3.org/2000/svg">
<path d="M42.604 44.8236C38.4499 48.3121 33.2974 50 28.0123 50C23.315 50 18.512 48.6679 14.2114 46.081C10.066 43.5588 5.90305 45.4963 3.24635 47.4351C3.16463 47.4948 3.05084 47.4866 2.97854 47.4156C2.90625 47.3446 2.89933 47.2283 2.96283 47.1472C7.828 40.9442 5.23291 37.8034 4.11013 35.8395H4.11201C2.77612 33.5506 1.79981 31.146 1.18624 28.708C-1.00651 20.0194 1.3585 10.9076 8.18382 5.17617C14.786 -0.368585 23.9109 -1.36438 32.0872 1.73679C32.1381 1.75627 32.1526 1.82103 32.1136 1.85937C32.0998 1.8732 32.0803 1.88075 32.0615 1.88075C32.0571 1.88075 32.052 1.88075 32.047 1.87949C29.2011 1.34702 26.0886 1.45892 22.9428 2.20388C21.8565 2.46037 20.7645 2.79419 19.6801 3.20281C18.3511 3.77426 17.0969 4.53808 15.9528 5.49804C8.79425 11.5099 8.69555 22.9546 15.7334 31.0592C19.7505 35.6893 25.2298 38.2303 30.5219 38.4359C34.4975 38.5905 38.3656 37.43 41.4372 34.8525C45.8209 31.1705 47.4453 24.9983 46.5136 19.2562C45.5606 15.5911 43.5395 14.1496 41.0764 14.1496C38.6133 14.1496 35.5844 15.6521 32.814 17.8241C32.7429 17.8794 32.6404 17.8744 32.5763 17.8109C32.5417 17.777 32.5248 17.7323 32.5248 17.6871C32.5248 17.6475 32.538 17.6072 32.5663 17.5745C37.1561 12.1379 38.6919 6.93703 36.3395 4.58083C36.2936 4.53494 36.2923 4.46138 36.3388 4.41549C36.3759 4.37903 36.4331 4.37149 36.4797 4.39663C37.8338 5.13216 39.418 5.49427 41.0129 5.49427C43.1679 5.49427 45.1746 4.64432 46.8217 3.34112C46.8839 3.29208 46.9732 3.29648 47.0291 3.3518C47.0838 3.4065 47.0882 3.49199 47.0405 3.55297C44.8276 6.3637 45.1803 10.621 47.3422 15.1215C47.4396 15.312 47.5339 15.5031 47.6257 15.6942C47.6352 15.7131 47.644 15.7313 47.654 15.7502H47.6534C52.45 25.781 50.7828 37.9562 42.6059 44.8236H42.604Z" fill="url(#paint0_linear_7913_10671)"/>
<path d="M82.7092 21.0429C82.275 20.2429 81.6464 19.6371 80.8235 19.2257C80.0235 18.7914 79.075 18.5743 77.9778 18.5743C76.0807 18.5743 74.5607 19.2029 73.4178 20.46C72.275 21.6943 71.7035 23.3514 71.7035 25.4314C71.7035 27.6486 72.2978 29.3857 73.4864 30.6429C74.6978 31.8771 76.355 32.4943 78.4578 32.4943C79.8978 32.4943 81.1092 32.1286 82.0921 31.3971C83.0978 30.6657 83.8292 29.6143 84.2864 28.2429H76.8464V23.9229H89.6007V29.3743C89.1664 30.8371 88.4235 32.1971 87.3721 33.4543C86.3435 34.7114 85.0292 35.7286 83.4292 36.5057C81.8292 37.2829 80.0235 37.6714 78.0121 37.6714C75.635 37.6714 73.5092 37.1571 71.635 36.1286C69.7835 35.0771 68.3321 33.6257 67.2807 31.7743C66.2521 29.9229 65.7378 27.8086 65.7378 25.4314C65.7378 23.0543 66.2521 20.94 67.2807 19.0886C68.3321 17.2143 69.7835 15.7629 71.635 14.7343C73.4864 13.6829 75.6007 13.1571 77.9778 13.1571C80.8578 13.1571 83.2807 13.8543 85.2464 15.2486C87.235 16.6429 88.5492 18.5743 89.1892 21.0429H82.7092ZM92.0253 27.9C92.0253 25.9343 92.391 24.2086 93.1225 22.7229C93.8767 21.2371 94.8939 20.0943 96.1739 19.2943C97.4539 18.4943 98.8825 18.0943 100.46 18.0943C101.808 18.0943 102.985 18.3686 103.991 18.9171C105.02 19.4657 105.808 20.1857 106.357 21.0771V18.3686H112.22V37.5H106.357V34.7914C105.785 35.6829 104.985 36.4029 103.957 36.9514C102.951 37.5 101.774 37.7743 100.425 37.7743C98.871 37.7743 97.4539 37.3743 96.1739 36.5743C94.8939 35.7514 93.8767 34.5971 93.1225 33.1114C92.391 31.6029 92.0253 29.8657 92.0253 27.9ZM106.357 27.9343C106.357 26.4714 105.945 25.3171 105.122 24.4714C104.322 23.6257 103.34 23.2029 102.174 23.2029C101.008 23.2029 100.014 23.6257 99.191 24.4714C98.391 25.2943 97.991 26.4371 97.991 27.9C97.991 29.3629 98.391 30.5286 99.191 31.3971C100.014 32.2429 101.008 32.6657 102.174 32.6657C103.34 32.6657 104.322 32.2429 105.122 31.3971C105.945 30.5514 106.357 29.3971 106.357 27.9343ZM136.347 18.3686L124.347 46.5857H118.038L122.427 36.8486L114.644 18.3686H121.193L125.615 30.3343L130.004 18.3686H136.347ZM137.644 27.9C137.644 25.9343 138.01 24.2086 138.741 22.7229C139.495 21.2371 140.513 20.0943 141.793 19.2943C143.073 18.4943 144.501 18.0943 146.078 18.0943C147.427 18.0943 148.604 18.3686 149.61 18.9171C150.638 19.4657 151.427 20.1857 151.975 21.0771V18.3686H157.838V37.5H151.975V34.7914C151.404 35.6829 150.604 36.4029 149.575 36.9514C148.57 37.5 147.393 37.7743 146.044 37.7743C144.49 37.7743 143.073 37.3743 141.793 36.5743C140.513 35.7514 139.495 34.5971 138.741 33.1114C138.01 31.6029 137.644 29.8657 137.644 27.9ZM151.975 27.9343C151.975 26.4714 151.564 25.3171 150.741 24.4714C149.941 23.6257 148.958 23.2029 147.793 23.2029C146.627 23.2029 145.633 23.6257 144.81 24.4714C144.01 25.2943 143.61 26.4371 143.61 27.9C143.61 29.3629 144.01 30.5286 144.81 31.3971C145.633 32.2429 146.627 32.6657 147.793 32.6657C148.958 32.6657 149.941 32.2429 150.741 31.3971C151.564 30.5514 151.975 29.3971 151.975 27.9343Z" fill="url(#paint1_linear_7913_10671)"/>
<path d="M200.58 13.6029L193.654 37.5H190.157L184.603 18.2657L178.843 37.5L175.38 37.5343L168.694 13.6029H172.02L177.231 33.8657L182.991 13.6029H186.488L191.974 33.7971L197.22 13.6029H200.58ZM203.171 28.0371C203.171 26.1171 203.56 24.4371 204.337 22.9971C205.114 21.5343 206.177 20.4029 207.526 19.6029C208.897 18.8029 210.417 18.4029 212.086 18.4029C213.731 18.4029 215.16 18.7571 216.371 19.4657C217.583 20.1743 218.486 21.0657 219.08 22.14V18.7114H222.234V37.5H219.08V34.0029C218.463 35.1 217.537 36.0143 216.303 36.7457C215.091 37.4543 213.674 37.8086 212.051 37.8086C210.383 37.8086 208.874 37.3971 207.526 36.5743C206.177 35.7514 205.114 34.5971 204.337 33.1114C203.56 31.6257 203.171 29.9343 203.171 28.0371ZM219.08 28.0714C219.08 26.6543 218.794 25.42 218.223 24.3686C217.651 23.3171 216.874 22.5171 215.891 21.9686C214.931 21.3971 213.868 21.1114 212.703 21.1114C211.537 21.1114 210.474 21.3857 209.514 21.9343C208.554 22.4829 207.788 23.2829 207.217 24.3343C206.646 25.3857 206.36 26.62 206.36 28.0371C206.36 29.4771 206.646 30.7343 207.217 31.8086C207.788 32.86 208.554 33.6714 209.514 34.2429C210.474 34.7914 211.537 35.0657 212.703 35.0657C213.868 35.0657 214.931 34.7914 215.891 34.2429C216.874 33.6714 217.651 32.86 218.223 31.8086C218.794 30.7343 219.08 29.4886 219.08 28.0714ZM230.969 12.1286V37.5H227.849V12.1286H230.969ZM239.75 12.1286V37.5H236.63V12.1286H239.75ZM262.553 27.3857C262.553 27.98 262.519 28.6086 262.45 29.2714H247.433C247.547 31.1229 248.176 32.5743 249.319 33.6257C250.484 34.6543 251.89 35.1686 253.536 35.1686C254.884 35.1686 256.004 34.86 256.896 34.2429C257.81 33.6029 258.45 32.7571 258.816 31.7057H262.176C261.673 33.5114 260.667 34.9857 259.159 36.1286C257.65 37.2486 255.776 37.8086 253.536 37.8086C251.753 37.8086 250.153 37.4086 248.736 36.6086C247.342 35.8086 246.244 34.6771 245.444 33.2143C244.644 31.7286 244.244 30.0143 244.244 28.0714C244.244 26.1286 244.633 24.4257 245.41 22.9629C246.187 21.5 247.273 20.38 248.667 19.6029C250.084 18.8029 251.707 18.4029 253.536 18.4029C255.319 18.4029 256.896 18.7914 258.267 19.5686C259.639 20.3457 260.69 21.42 261.422 22.7914C262.176 24.14 262.553 25.6714 262.553 27.3857ZM259.33 26.7343C259.33 25.5457 259.067 24.5286 258.542 23.6829C258.016 22.8143 257.296 22.1629 256.382 21.7286C255.49 21.2714 254.496 21.0429 253.399 21.0429C251.822 21.0429 250.473 21.5457 249.353 22.5514C248.256 23.5571 247.627 24.9514 247.467 26.7343H259.33ZM270.82 21.2829V32.3571C270.82 33.2714 271.014 33.9229 271.403 34.3114C271.791 34.6771 272.466 34.86 273.426 34.86H275.723V37.5H272.911C271.174 37.5 269.871 37.1 269.003 36.3C268.134 35.5 267.7 34.1857 267.7 32.3571V21.2829H265.266V18.7114H267.7V13.98H270.82V18.7114H275.723V21.2829H270.82Z" fill="white"/>
<defs>
<linearGradient id="paint0_linear_7913_10671" x1="0.393677" y1="0" x2="51.3919" y2="1.11767" gradientUnits="userSpaceOnUse">
<stop stop-color="#1201FF"/>
<stop offset="1" stop-color="#C597FD"/>
</linearGradient>
<linearGradient id="paint1_linear_7913_10671" x1="64.6064" y1="3.5" x2="279.738" y2="26.8888" gradientUnits="userSpaceOnUse">
<stop stop-color="#1918D7"/>
<stop offset="0.755" stop-color="#731BCC"/>
</linearGradient>
</defs>
</svg>
