<svg width="24" height="24" viewBox="0 0 24 24" fill="none" xmlns="http://www.w3.org/2000/svg">
<path d="M20.261 21.5153C18.267 23.1898 15.7938 24 13.2569 24C11.0022 24 8.6968 23.3606 6.6325 22.1189C4.64272 20.9082 2.6445 21.8382 1.36928 22.7688C1.33006 22.7975 1.27544 22.7936 1.24074 22.7595C1.20603 22.7254 1.20272 22.6696 1.23319 22.6306C3.56848 19.6532 2.32283 18.1456 1.7839 17.203H1.7848C1.14357 16.1043 0.674945 14.9501 0.380432 13.7799C-0.672089 9.6093 0.463113 5.23566 3.73927 2.48456C6.9083 -0.176921 11.2883 -0.654901 15.2129 0.833657C15.2373 0.843012 15.2443 0.874092 15.2256 0.892499C15.2189 0.899138 15.2096 0.902759 15.2005 0.902759C15.1984 0.902759 15.196 0.902759 15.1936 0.902156C13.8275 0.646569 12.3336 0.700282 10.8236 1.05786C10.3021 1.18098 9.77799 1.34121 9.25746 1.53735C8.61955 1.81165 8.01755 2.17828 7.46836 2.63906C4.03227 5.52474 3.9849 11.0182 7.36305 14.9084C9.29126 17.1308 11.9214 18.3505 14.4615 18.4492C16.3698 18.5234 18.2265 17.9664 19.7009 16.7292C21.805 14.9618 22.5848 11.9992 22.1376 9.24297C21.6801 7.48374 20.71 6.79181 19.5277 6.79181C18.3454 6.79181 16.8916 7.51301 15.5617 8.55557C15.5276 8.58212 15.4784 8.57971 15.4477 8.54923C15.4311 8.53294 15.4229 8.51151 15.4229 8.48979C15.4229 8.47078 15.4293 8.45146 15.4428 8.43577C17.646 5.8262 18.3831 3.32978 17.254 2.1988C17.2319 2.17677 17.2313 2.14146 17.2537 2.11944C17.2715 2.10193 17.2989 2.09831 17.3213 2.11038C17.9712 2.46344 18.7317 2.63725 19.4972 2.63725C20.5316 2.63725 21.4948 2.22927 22.2854 1.60374C22.3153 1.5802 22.3582 1.58231 22.385 1.60887C22.4113 1.63512 22.4134 1.67616 22.3904 1.70543C21.3283 3.05457 21.4976 5.09806 22.5353 7.25833C22.5821 7.34976 22.6273 7.44149 22.6714 7.53322C22.6759 7.54228 22.6801 7.55103 22.685 7.56008H22.6847C24.9871 12.3749 24.1868 18.219 20.2619 21.5153H20.261Z" fill="url(#paint0_linear_8498_10093)"/>
<defs>
<linearGradient id="paint0_linear_8498_10093" x1="0" y1="0" x2="24.4792" y2="0.536481" gradientUnits="userSpaceOnUse">
<stop stop-color="#1201FF"/>
<stop offset="1" stop-color="#C597FD"/>
</linearGradient>
</defs>
</svg>
