<svg width="20" height="20" viewBox="0 0 20 20" fill="none" xmlns="http://www.w3.org/2000/svg">
<g clip-path="url(#clip0_7502_15121)">
<path d="M7.5 8.3334C5.2025 8.3334 3.33333 6.46423 3.33333 4.16673C3.33333 1.86923 5.2025 6.10352e-05 7.5 6.10352e-05C9.7975 6.10352e-05 11.6667 1.86923 11.6667 4.16673C11.6667 6.46423 9.7975 8.3334 7.5 8.3334ZM7.5 0.833394C5.66167 0.833394 4.16667 2.32839 4.16667 4.16673C4.16667 6.00506 5.66167 7.50006 7.5 7.50006C9.33833 7.50006 10.8333 6.00506 10.8333 4.16673C10.8333 2.32839 9.33833 0.833394 7.5 0.833394Z" fill="white"/>
<path d="M7.08333 17.5001H0.416667C0.186667 17.5001 0 17.3134 0 17.0834V13.7501C0 11.6826 1.6825 10.0001 3.75 10.0001H8.75C8.98 10.0001 9.16667 10.1867 9.16667 10.4167C9.16667 10.6467 8.98 10.8334 8.75 10.8334H3.75C2.14167 10.8334 0.833333 12.1417 0.833333 13.7501V16.6667H7.08333C7.31333 16.6667 7.5 16.8534 7.5 17.0834C7.5 17.3134 7.31333 17.5001 7.08333 17.5001Z" fill="white"/>
<path d="M14.1667 16.6667C13.0183 16.6667 12.0833 15.7317 12.0833 14.5834C12.0833 13.4351 13.0183 12.5001 14.1667 12.5001C15.315 12.5001 16.25 13.4351 16.25 14.5834C16.25 15.7317 15.315 16.6667 14.1667 16.6667ZM14.1667 13.3334C13.4775 13.3334 12.9167 13.8942 12.9167 14.5834C12.9167 15.2726 13.4775 15.8334 14.1667 15.8334C14.8558 15.8334 15.4167 15.2726 15.4167 14.5834C15.4167 13.8942 14.8558 13.3334 14.1667 13.3334Z" fill="white"/>
<path d="M14.8308 20.0001H13.5017C13.0717 20.0001 12.715 19.6776 12.6725 19.2492L12.5667 18.1901C12.3142 18.0776 12.0733 17.9376 11.8458 17.7709L10.8725 18.2101C10.4817 18.3884 10.0225 18.2392 9.80833 17.8667L9.14417 16.7159C8.92917 16.3434 9.03083 15.8734 9.37917 15.6226L10.2367 15.0059C10.22 14.8767 10.2083 14.7334 10.2083 14.5834C10.2083 14.4334 10.22 14.2892 10.2367 14.1609L9.37917 13.5442C9.03083 13.2934 8.92917 12.8234 9.14417 12.4509L9.80833 11.3001C10.0233 10.9276 10.48 10.7801 10.8725 10.9567L11.8458 11.3959C12.0733 11.2292 12.3142 11.0892 12.5667 10.9767L12.6725 9.91756C12.715 9.49006 13.0717 9.16756 13.5017 9.16756H14.8308C15.2608 9.16756 15.6175 9.49006 15.66 9.91839L15.7658 10.9776C16.0192 11.0901 16.26 11.2309 16.4867 11.3967L17.46 10.9576C17.8525 10.7817 18.31 10.9292 18.5242 11.3009L19.1883 12.4517C19.4033 12.8242 19.3017 13.2942 18.9533 13.5451L18.0958 14.1617C18.1125 14.2909 18.1242 14.4342 18.1242 14.5842C18.1242 14.7342 18.1125 14.8784 18.0958 15.0067L18.9533 15.6234C19.3017 15.8742 19.4033 16.3442 19.1883 16.7167L18.525 17.8667C18.31 18.2384 17.8542 18.3876 17.4608 18.2101L16.4875 17.7709C16.26 17.9376 16.0192 18.0776 15.7667 18.1901L15.66 19.2501C15.6175 19.6776 15.2608 20.0001 14.8308 20.0001ZM11.9042 16.8709C12 16.8709 12.095 16.9042 12.1717 16.9684C12.4542 17.2051 12.7667 17.3859 13.0992 17.5076C13.2492 17.5626 13.355 17.6984 13.3708 17.8576L13.5025 19.1667H14.8317L14.9625 17.8576C14.9783 17.6984 15.0842 17.5626 15.2342 17.5076C15.5667 17.3859 15.8792 17.2042 16.1617 16.9684C16.285 16.8659 16.455 16.8426 16.6 16.9084L17.8033 17.4517L18.4675 16.3009L17.4025 15.5359C17.2725 15.4426 17.2083 15.2826 17.235 15.1251C17.2658 14.9492 17.2908 14.7701 17.2908 14.5851C17.2908 14.4001 17.2658 14.2209 17.235 14.0451C17.2075 13.8876 17.2725 13.7284 17.4025 13.6342L18.4675 12.8692L17.8033 11.7184L16.6 12.2609C16.4542 12.3267 16.2842 12.3034 16.1608 12.2009C15.8792 11.9642 15.5675 11.7834 15.2333 11.6617C15.0833 11.6067 14.9775 11.4709 14.9617 11.3117L14.8308 10.0001H13.5017L13.3708 11.3092C13.355 11.4684 13.2492 11.6042 13.0992 11.6592C12.7667 11.7809 12.4542 11.9626 12.1717 12.1984C12.0492 12.3009 11.8792 12.3251 11.7333 12.2584L10.53 11.7151L9.86583 12.8659L10.9308 13.6309C11.0608 13.7242 11.125 13.8842 11.0983 14.0417C11.0675 14.2176 11.0425 14.3967 11.0425 14.5817C11.0425 14.7667 11.0675 14.9459 11.0983 15.1217C11.1258 15.2792 11.0608 15.4384 10.9308 15.5326L9.86583 16.2976L10.53 17.4484L11.7333 16.9059C11.7883 16.8826 11.8458 16.8709 11.9042 16.8709Z" fill="white"/>
</g>
<defs>
<clipPath id="clip0_7502_15121">
<rect width="20" height="20" fill="white"/>
</clipPath>
</defs>
</svg>
