<svg width="20" height="20" viewBox="0 0 20 20" fill="none" xmlns="http://www.w3.org/2000/svg">
<g clip-path="url(#clip0_7818_10374)">
<path d="M7.5 8.33333C5.2025 8.33333 3.33333 6.46417 3.33333 4.16667C3.33333 1.86917 5.2025 0 7.5 0C9.7975 0 11.6667 1.86917 11.6667 4.16667C11.6667 6.46417 9.7975 8.33333 7.5 8.33333ZM7.5 0.833333C5.66167 0.833333 4.16667 2.32833 4.16667 4.16667C4.16667 6.005 5.66167 7.5 7.5 7.5C9.33833 7.5 10.8333 6.005 10.8333 4.16667C10.8333 2.32833 9.33833 0.833333 7.5 0.833333Z" fill="#8FA2B7"/>
<path d="M7.08333 17.5H0.416667C0.186667 17.5 0 17.3133 0 17.0833V13.75C0 11.6825 1.6825 10 3.75 10H8.75C8.98 10 9.16667 10.1867 9.16667 10.4167C9.16667 10.6467 8.98 10.8333 8.75 10.8333H3.75C2.14167 10.8333 0.833333 12.1417 0.833333 13.75V16.6667H7.08333C7.31333 16.6667 7.5 16.8533 7.5 17.0833C7.5 17.3133 7.31333 17.5 7.08333 17.5Z" fill="#8FA2B7"/>
<path d="M14.1667 16.6667C13.0183 16.6667 12.0833 15.7317 12.0833 14.5833C12.0833 13.435 13.0183 12.5 14.1667 12.5C15.315 12.5 16.25 13.435 16.25 14.5833C16.25 15.7317 15.315 16.6667 14.1667 16.6667ZM14.1667 13.3333C13.4775 13.3333 12.9167 13.8942 12.9167 14.5833C12.9167 15.2725 13.4775 15.8333 14.1667 15.8333C14.8558 15.8333 15.4167 15.2725 15.4167 14.5833C15.4167 13.8942 14.8558 13.3333 14.1667 13.3333Z" fill="#8FA2B7"/>
<path d="M14.8308 20H13.5017C13.0717 20 12.715 19.6775 12.6725 19.2491L12.5667 18.19C12.3142 18.0775 12.0733 17.9375 11.8458 17.7708L10.8725 18.21C10.4817 18.3883 10.0225 18.2391 9.80833 17.8666L9.14417 16.7158C8.92917 16.3433 9.03083 15.8733 9.37917 15.6225L10.2367 15.0058C10.22 14.8766 10.2083 14.7333 10.2083 14.5833C10.2083 14.4333 10.22 14.2891 10.2367 14.1608L9.37917 13.5441C9.03083 13.2933 8.92917 12.8233 9.14417 12.4508L9.80833 11.3C10.0233 10.9275 10.48 10.78 10.8725 10.9566L11.8458 11.3958C12.0733 11.2291 12.3142 11.0891 12.5667 10.9766L12.6725 9.91748C12.715 9.48998 13.0717 9.16748 13.5017 9.16748H14.8308C15.2608 9.16748 15.6175 9.48998 15.66 9.91831L15.7658 10.9775C16.0192 11.09 16.26 11.2308 16.4867 11.3966L17.46 10.9575C17.8525 10.7816 18.31 10.9291 18.5242 11.3008L19.1883 12.4516C19.4033 12.8241 19.3017 13.2941 18.9533 13.545L18.0958 14.1616C18.1125 14.2908 18.1242 14.4341 18.1242 14.5841C18.1242 14.7341 18.1125 14.8783 18.0958 15.0066L18.9533 15.6233C19.3017 15.8741 19.4033 16.3441 19.1883 16.7166L18.525 17.8666C18.31 18.2383 17.8542 18.3875 17.4608 18.21L16.4875 17.7708C16.26 17.9375 16.0192 18.0775 15.7667 18.19L15.66 19.25C15.6175 19.6775 15.2608 20 14.8308 20ZM11.9042 16.8708C12 16.8708 12.095 16.9041 12.1717 16.9683C12.4542 17.205 12.7667 17.3858 13.0992 17.5075C13.2492 17.5625 13.355 17.6983 13.3708 17.8575L13.5025 19.1666H14.8317L14.9625 17.8575C14.9783 17.6983 15.0842 17.5625 15.2342 17.5075C15.5667 17.3858 15.8792 17.2041 16.1617 16.9683C16.285 16.8658 16.455 16.8425 16.6 16.9083L17.8033 17.4516L18.4675 16.3008L17.4025 15.5358C17.2725 15.4425 17.2083 15.2825 17.235 15.125C17.2658 14.9491 17.2908 14.77 17.2908 14.585C17.2908 14.4 17.2658 14.2208 17.235 14.045C17.2075 13.8875 17.2725 13.7283 17.4025 13.6341L18.4675 12.8691L17.8033 11.7183L16.6 12.2608C16.4542 12.3266 16.2842 12.3033 16.1608 12.2008C15.8792 11.9641 15.5675 11.7833 15.2333 11.6616C15.0833 11.6066 14.9775 11.4708 14.9617 11.3116L14.8308 9.99998H13.5017L13.3708 11.3091C13.355 11.4683 13.2492 11.6041 13.0992 11.6591C12.7667 11.7808 12.4542 11.9625 12.1717 12.1983C12.0492 12.3008 11.8792 12.325 11.7333 12.2583L10.53 11.715L9.86583 12.8658L10.9308 13.6308C11.0608 13.7241 11.125 13.8841 11.0983 14.0416C11.0675 14.2175 11.0425 14.3966 11.0425 14.5816C11.0425 14.7666 11.0675 14.9458 11.0983 15.1216C11.1258 15.2791 11.0608 15.4383 10.9308 15.5325L9.86583 16.2975L10.53 17.4483L11.7333 16.9058C11.7883 16.8825 11.8458 16.8708 11.9042 16.8708Z" fill="#8FA2B7"/>
</g>
<defs>
<clipPath id="clip0_7818_10374">
<rect width="20" height="20" fill="white"/>
</clipPath>
</defs>
</svg>
