<svg width="20" height="20" viewBox="0 0 20 20" fill="none" xmlns="http://www.w3.org/2000/svg">
<g clip-path="url(#clip0_7818_10387)">
<path d="M10 0.62467C8.62093 0.62467 7.30927 0.922182 6.12915 1.4578C5.74929 1.63004 6.00747 2.19947 6.38732 2.02723C7.4883 1.52754 8.71088 1.25026 10 1.25026C14.8362 1.25026 18.75 5.16347 18.75 9.99967C18.75 12.0318 18.0507 13.8922 16.8884 15.3781C16.79 15.5053 16.8033 15.6862 16.9202 15.7968L17.6837 16.5628H15.3101V14.1916L16.0297 14.9087C16.325 15.2146 16.7779 14.7593 16.4703 14.4656L15.2203 13.2156C15.1601 13.1563 15.0784 13.1239 14.9939 13.1258C14.8242 13.1294 14.6881 13.2674 14.6875 13.4371V16.874C14.6869 17.0466 14.8262 17.1871 14.9988 17.1877H18.4357C18.7136 17.1876 18.8531 16.852 18.6572 16.6549L17.5494 15.5428C18.6929 13.989 19.375 12.0738 19.375 9.99963C19.375 4.82566 15.174 0.62467 10 0.62467ZM10 1.87527C8.82247 1.87527 7.70048 2.12515 6.68945 2.57658C6.29737 2.74162 6.55796 3.32859 6.94335 3.14846C7.87618 2.73195 8.91111 2.50028 10 2.50028C14.1458 2.50028 17.4994 5.85384 17.4994 9.99967C17.4994 11.2201 17.2083 12.3701 16.6919 13.3883C16.4734 13.7681 17.0685 14.0719 17.2479 13.6722C17.8075 12.5689 18.1244 11.3196 18.1244 9.99967C18.1244 5.51605 14.4836 1.87527 10 1.87527ZM1.56127 2.81155C1.28336 2.81166 1.14382 3.14727 1.33972 3.3444L2.44811 4.45644C1.30469 6.01029 0.624996 7.92542 0.624996 9.99967C0.624996 15.1736 4.82604 19.3747 10 19.3747C11.3791 19.3747 12.6883 19.0778 13.8684 18.5422C14.2484 18.3699 13.9902 17.7999 13.6102 17.9721C12.5093 18.4718 11.2891 18.7497 10 18.7497C5.16381 18.7496 1.24756 14.8359 1.24756 9.99967C1.24756 7.9675 1.94015 6.10101 3.10241 4.61514C3.19974 4.49022 3.18863 4.31267 3.07679 4.20071L2.31568 3.43656H4.6875V5.80839L3.96728 5.09061C3.6719 4.78479 3.21917 5.24002 3.52661 5.5337L4.77722 6.78433C4.97415 6.98446 5.3146 6.84349 5.3125 6.56277V3.12529C5.31312 2.95175 5.17231 2.81089 4.99877 2.81155H1.56127ZM9.99939 4.99905C8.91996 4.99904 7.86944 5.34869 7.005 5.99514C6.97145 6.01942 6.94305 6.05012 6.92146 6.08547C6.89988 6.12081 6.88554 6.16012 6.87927 6.20106C6.873 6.242 6.87493 6.28378 6.88495 6.32397C6.89496 6.36416 6.91287 6.40193 6.93762 6.43513C6.96238 6.46834 6.99348 6.49631 7.02913 6.51739C7.06479 6.53847 7.10427 6.55225 7.1453 6.55794C7.18632 6.56362 7.22807 6.5611 7.26811 6.55051C7.30815 6.53992 7.34569 6.52145 7.37854 6.49623C8.13498 5.93054 9.05481 5.62406 9.99939 5.62406C12.4193 5.62406 14.3756 7.58033 14.3756 10.0003C14.3756 12.4202 12.4193 14.3741 9.99939 14.3741C7.57944 14.3741 5.62561 12.4202 5.62561 10.0003C5.62561 9.05217 5.93246 8.12821 6.50207 7.37027C6.5311 7.33802 6.5531 7.30008 6.56667 7.25885C6.58023 7.21763 6.58506 7.17405 6.58085 7.13086C6.57664 7.08767 6.56348 7.04581 6.54221 7.00799C6.52094 6.97016 6.49203 6.93717 6.45731 6.91113C6.4226 6.8851 6.38284 6.86661 6.34057 6.85678C6.29831 6.84695 6.25446 6.84603 6.21181 6.85408C6.16917 6.86213 6.12868 6.87897 6.0929 6.90353C6.05713 6.92809 6.02686 6.95984 6.00402 6.99674C5.35311 7.86289 5.00061 8.91682 5.00061 10.0003C5.00061 12.758 7.24166 14.9991 9.99939 14.9991C12.7571 14.9991 15.0006 12.758 15.0006 10.0003C15.0006 7.24256 12.7571 4.99904 9.99939 4.99905ZM3.01452 6.15446C2.90149 6.16036 2.80013 6.2259 2.74963 6.32718C2.19009 7.43044 1.87256 8.67978 1.87256 9.99967C1.87256 14.4833 5.51639 18.1247 10 18.1247C11.1775 18.1247 12.2971 17.8748 13.3081 17.4234C13.6898 17.2541 13.4359 16.6816 13.0542 16.8509C12.1214 17.2674 11.0889 17.4991 10 17.4991C5.85416 17.4991 2.49816 14.1455 2.49816 9.99967C2.49816 8.77923 2.78925 7.62923 3.30566 6.61099C3.4168 6.39747 3.255 6.14373 3.01452 6.15446ZM9.99817 6.24727C9.84188 6.24727 9.68566 6.35133 9.68566 6.55977V7.22263C8.97557 7.36884 8.4381 8.00033 8.4381 8.75217C8.4381 9.61141 9.14013 10.314 9.99939 10.314C10.5209 10.314 10.9363 10.7313 10.9363 11.2528C10.9363 11.7742 10.5209 12.1897 9.99939 12.1897C9.47792 12.1897 9.0631 11.7742 9.0631 11.2528C9.05366 10.8452 8.44715 10.8452 8.4381 11.2528C8.4381 12.0046 8.97557 12.6367 9.68566 12.7829V13.4397C9.68566 13.8564 10.3107 13.8564 10.3107 13.4397V12.7835C11.022 12.6383 11.5613 12.0055 11.5613 11.2528C11.5613 10.3935 10.8586 9.68904 9.99939 9.68904C9.47792 9.68904 9.0631 9.27364 9.0631 8.75217C9.0631 8.23071 9.47792 7.81589 9.99939 7.81589C10.5209 7.81589 10.9363 8.23071 10.9363 8.75217C10.9268 9.17819 11.5707 9.17819 11.5613 8.75217C11.5613 7.99948 11.022 7.36728 10.3107 7.22202V6.55977C10.3107 6.35139 10.1545 6.24727 9.99817 6.24727Z" fill="#8FA2B7"/>
</g>
<defs>
<clipPath id="clip0_7818_10387">
<rect width="20" height="20" fill="white"/>
</clipPath>
</defs>
</svg>
