<svg width="313" height="313" viewBox="0 0 313 313" fill="white" xmlns="http://www.w3.org/2000/svg">
<path d="M264.623 280.596C238.58 302.434 206.279 313 173.145 313C143.697 313 113.587 304.661 86.6253 288.467C60.6374 272.678 34.5391 284.807 17.8839 296.944C17.3715 297.317 16.6582 297.266 16.2049 296.822C15.7517 296.377 15.7084 295.649 16.1064 295.141C46.6069 256.311 30.3379 236.649 23.299 224.355H23.3108C14.9359 210.027 8.81529 194.974 4.96873 179.712C-8.77799 125.321 6.04861 68.2817 48.8376 32.4028C90.2275 -2.30734 147.433 -8.541 198.692 10.8723C199.011 10.9943 199.102 11.3996 198.857 11.6397C198.771 11.7263 198.648 11.7735 198.53 11.7735C198.503 11.7735 198.471 11.7735 198.44 11.7656C180.598 8.43234 161.085 9.13284 141.364 13.7963C134.554 15.4019 127.708 17.4916 120.909 20.0496C112.578 23.6269 104.715 28.4084 97.5423 34.4177C52.6645 72.0518 52.0457 143.696 96.1668 194.431C121.351 223.415 155.702 239.322 188.878 240.609C213.802 241.577 238.052 234.312 257.308 218.177C284.79 195.127 294.974 156.49 289.133 120.544C283.158 97.6004 270.488 88.5765 255.046 88.5765C239.605 88.5765 220.616 97.9821 203.248 111.579C202.802 111.925 202.16 111.894 201.758 111.496C201.541 111.284 201.435 111.004 201.435 110.721C201.435 110.473 201.518 110.221 201.695 110.017C230.469 75.9833 240.097 43.4258 225.35 28.676C225.062 28.3887 225.054 27.9283 225.346 27.641C225.578 27.4127 225.937 27.3655 226.229 27.5229C234.718 32.1273 244.649 34.3941 254.648 34.3941C268.158 34.3941 280.739 29.0735 291.064 20.9154C291.455 20.6084 292.014 20.636 292.365 20.9823C292.708 21.3247 292.735 21.8599 292.436 22.2416C278.563 39.8367 280.774 66.4872 294.328 94.6607C294.939 95.8531 295.53 97.0494 296.105 98.2458C296.164 98.3639 296.219 98.478 296.282 98.596H296.279C326.349 161.389 315.898 237.606 264.635 280.596H264.623Z" fill="white" fill-opacity="0.3"/>
</svg>
